<?xml version="1.0" standalone="no"?>
<!DOCTYPE svg PUBLIC "-//W3C//DTD SVG 20010904//EN"
 "http://www.w3.org/TR/2001/REC-SVG-20010904/DTD/svg10.dtd">
<svg version="1.0" xmlns="http://www.w3.org/2000/svg"
 width="120.000000pt" height="24.000000pt" viewBox="0 0 120.000000 24.000000"
 preserveAspectRatio="xMidYMid meet">

<g transform="translate(0.000000,24.000000) scale(0.100000,-0.100000)"
fill="#000000" stroke="none">
<path d="M0 120 l0 -120 600 0 600 0 0 120 0 120 -95 0 -94 0 49 -46 c28 -26
50 -54 50 -63 0 -9 -23 -39 -50 -66 -41 -40 -54 -48 -67 -39 -27 17 -26 30 8
69 l32 36 -34 35 c-29 30 -32 37 -21 54 12 20 9 20 -183 20 -192 0 -195 0
-183 -20 11 -17 8 -24 -22 -55 l-34 -35 32 -33 c35 -36 41 -64 16 -74 -11 -4
-34 12 -72 50 l-57 57 55 55 54 55 -292 0 -292 0 0 -120z m72 53 c17 -15 19
-15 36 0 23 21 46 22 62 2 11 -13 9 -20 -10 -40 l-23 -25 23 -25 c19 -20 21
-27 10 -40 -17 -20 -33 -19 -55 5 l-18 20 -23 -21 c-41 -39 -85 4 -46 44 l22
21 -22 23 c-17 18 -19 25 -8 38 16 19 29 19 52 -2z"/>
</g>
</svg>
